<!--?xml version="1.0" standalone="no"?-->

<svg version="1.0" xmlns="http://www.w3.org/2000/svg" width="359.000000pt" height="202.000000pt" viewBox="0 0 359.000000 202.000000" preserveAspectRatio="xMidYMid meet">

<g transform="translate(0.000000,202.000000) scale(0.100000,-0.100000)" fill="#000000" stroke="none">
<path d="M485 1974 c-65 -16 -175 -60 -210 -84 -99 -69 -167 -166 -212 -303
-24 -73 -27 -97 -27 -217 0 -115 4 -149 27 -232 27 -101 75 -206 133 -294 19
-28 34 -54 34 -58 0 -3 -20 -6 -45 -6 l-45 0 125 -184 125 -185 -92 -136 c-51
-74 -108 -158 -125 -185 l-33 -50 1661 0 c1325 0 1659 3 1653 13 -4 6 -61 90
-126 185 l-118 173 125 184 126 185 -201 0 c-224 0 -214 -4 -180 74 l19 46
206 0 c169 0 210 3 229 16 47 30 44 104 -5 129 -22 12 -77 15 -267 15 -280 0
-269 4 -312 -106 -15 -38 -31 -68 -36 -67 -4 1 -76 174 -161 385 -96 241 -161
389 -174 401 -12 9 -32 17 -45 17 -48 0 -70 -37 -180 -315 -59 -148 -111 -280
-117 -292 -10 -22 -14 -23 -169 -23 -147 0 -159 1 -154 18 29 94 39 155 43
257 4 99 1 135 -16 209 -53 221 -187 365 -387 416 -191 49 -351 8 -492 -125
l-68 -64 -45 48 c-97 106 -197 151 -344 156 -55 2 -109 2 -120 -1z m238 -183
c72 -33 129 -89 185 -181 64 -106 123 -107 177 -2 41 80 130 165 200 191 124
46 280 17 379 -70 103 -92 142 -208 134 -399 -8 -180 -62 -315 -189 -475 l-59
-75 -554 0 -553 0 -49 62 c-103 131 -148 217 -180 347 -39 159 -28 314 31 431
67 132 179 198 338 199 65 1 87 -4 140 -28z m1943 -727 c57 -143 104 -266 104
-272 0 -9 -126 -12 -505 -12 -278 0 -505 2 -505 5 0 3 17 30 37 60 l37 55 237
0 c211 0 239 2 257 18 12 9 59 112 107 232 48 118 89 221 92 229 7 16 4 23
139 -315z m-1741 -369 c65 -22 127 -82 161 -158 24 -55 26 -68 21 -143 -7 -96
-28 -146 -89 -205 -80 -77 -229 -99 -368 -53 -172 57 -241 276 -139 448 66
113 257 164 414 111z m1305 -2 c81 -37 91 -53 88 -141 l-3 -77 -72 -3 -72 -3
-3 48 -3 48 -61 3 c-55 3 -65 0 -94 -25 -60 -50 -76 -132 -41 -209 15 -33 28
-45 71 -63 60 -26 94 -23 166 12 l45 21 46 -46 c46 -46 47 -47 28 -68 -10 -11
-43 -32 -73 -47 -47 -23 -67 -27 -151 -27 -110 0 -162 18 -229 78 -117 106
-117 339 1 438 49 41 74 55 131 74 57 19 170 12 226 -13z m-602 -11 c62 -33
102 -100 102 -171 0 -66 -27 -128 -70 -156 -36 -24 -36 -29 -8 -71 18 -27 30
-34 63 -36 l40 -3 3 -62 3 -63 -121 0 -120 0 0 44 c0 59 -56 136 -100 136 -27
0 -30 -3 -30 -30 0 -26 3 -30 29 -30 34 0 39 -10 33 -73 l-4 -47 -149 0 -149
0 0 65 0 65 35 0 35 0 0 166 0 165 -32 -3 -33 -3 -3 54 c-5 89 -20 83 221 79
197 -3 215 -5 255 -26z m1211 5 c5 -13 27 -62 49 -108 52 -110 78 -168 87
-199 4 -14 19 -49 32 -77 19 -42 28 -53 47 -53 35 0 48 -22 44 -77 l-3 -48
-142 -3 -143 -3 0 56 c0 41 4 55 14 55 20 0 29 16 21 40 -6 19 -14 20 -108 18
-93 -3 -102 -5 -105 -23 -2 -13 5 -24 20 -30 20 -9 23 -17 23 -60 l0 -50 -148
-3 -148 -3 3 63 c3 63 3 63 35 66 30 3 34 9 97 149 36 80 66 152 66 159 0 8
-10 14 -24 14 -25 0 -36 28 -36 89 0 47 13 51 167 51 141 0 144 0 152 -23z" style="fill: rgb(0, 160, 220);"></path>
<path d="M700 548 c-50 -35 -72 -83 -66 -145 8 -88 54 -134 146 -148 39 -5 51
-2 87 21 92 60 98 196 14 267 -44 36 -131 39 -181 5z" style="fill: rgb(0, 160, 220);"></path>
<path d="M1398 574 c-5 -4 -8 -38 -8 -76 l0 -68 63 0 c80 0 107 17 107 68 -1
59 -20 75 -93 80 -34 2 -65 0 -69 -4z" style="fill: rgb(0, 160, 220);"></path>
<path d="M2711 485 c-12 -26 -18 -51 -15 -56 8 -14 74 -11 80 4 6 17 -20 90
-34 95 -6 2 -20 -18 -31 -43z" style="fill: rgb(0, 160, 220);"></path>
</g>
</svg>
